<svg id="Layer_5" enable-background="new 0 0 64 64" height="512" viewBox="0 0 64 64" width="512" xmlns="http://www.w3.org/2000/svg"><g><path d="m53 35h-18v6h18zm-6 4h-2v-2h2zm4 0h-2v-2h2z"/><path d="m53 28c0-.552-.448-1-1-1h-16c-.552 0-1 .448-1 1v5h18zm-14 3h-2v-2h2zm4 0h-2v-2h2z"/><path d="m39 47h10v2h-10z"/><path d="m29 57v-14h-18v14h2v-12h14v12z"/><path d="m27 16c0-.643.132-1.253.354-1.818l-3.131-3.131-1.416-1.416-.635-.635h-12.467l-4.286 12h26.581c-2.757 0-5-2.243-5-5z"/><path d="m54.295 9h-12.467l-.636.636-1.416 1.416-3.131 3.131c.223.564.355 1.174.355 1.817 0 2.757-2.243 5-5 5h26.581zm-7.295 10h-2v-2h2zm4 0h-2v-2h2zm2 0v-2h2v2z"/><path d="m15 51h10v2h-10z"/><path d="m57 57v-34h-50v34h2v-29c0-1.654 1.346-3 3-3h16c1.654 0 3 1.346 3 3v29h2v-29c0-1.654 1.346-3 3-3h16c1.654 0 3 1.346 3 3v29z"/><path d="m39 55h10v2h-10z"/><path d="m53 57v-14h-18v14h2v-12h14v12z"/><path d="m39 51h10v2h-10z"/><path d="m29 28c0-.552-.448-1-1-1h-16c-.552 0-1 .448-1 1v5h18zm-14 3h-2v-2h2zm4 0h-2v-2h2z"/><path d="m58 59h-52c-1.304 0-2.416.836-2.829 2h57.658c-.413-1.164-1.525-2-2.829-2z"/><path d="m15 55h10v2h-10z"/><path d="m29 35h-18v6h18zm-6 4h-2v-2h2zm4 0h-2v-2h2z"/><path d="m15 47h10v2h-10z"/><circle cx="32" cy="16" r="3"/><path d="m36.949 11.051c-1.321-1.322-3.079-2.051-4.949-2.051s-3.628.729-4.949 2.051l1.414 1.414c.944-.944 2.2-1.465 3.535-1.465s2.591.521 3.535 1.465z"/><path d="m39.778 8.222c-4.289-4.289-11.268-4.289-15.557 0l1.414 1.414c3.51-3.51 9.219-3.51 12.729 0z"/><path d="m32 3c3.473 0 6.737 1.353 9.192 3.808l1.414-1.414c-2.833-2.833-6.599-4.394-10.606-4.394s-7.773 1.561-10.606 4.394l1.414 1.414c2.455-2.455 5.719-3.808 9.192-3.808z"/></g></svg>